<?xml version="1.0" encoding="UTF-8"?>
<svg id="Calque_2" data-name="Calque 2" xmlns="http://www.w3.org/2000/svg" viewBox="0 0 32 32">
  <defs>
    <style>
      .cls-1 {
        fill: #f1e8d4;
      }

      .cls-2 {
        fill: #fcfcfc;
      }

      .cls-3 {
        fill: #59d1ca;
      }

      .cls-4 {
        fill: #0f764e;
      }

      .cls-5 {
        fill: #e6c67f;
      }

      .cls-6 {
        fill: #1c4028;
      }
    </style>
  </defs>
  <g id="Calque_1-2" data-name="Calque 1">
    <g>
      <rect class="cls-1" width="32" height="32"/>
      <circle class="cls-6" cx="16.11" cy="16.1" r="9.85"/>
      <path class="cls-4" d="M24.27,11.12c.09.04.19.05.3.07.22.05.42.12.61.24.28.18.53.4.68.7.19.38.25.82.21,1.24-.01.13-.02.26-.06.38-.06.22-.12.42-.22.63,0,.01,0,.03,0,.05,0,.03.05-.03.05-.03.18-.18.37-.32.59-.44.34-.19.7-.26,1.09-.24.29.02.55.1.8.25.21.12.4.26.55.45.1.14.21.27.27.43-.1.02-.19-.02-.28-.03l-.4-.02h-.22c-.24-.03-.48-.01-.71-.04-.03,0-.03-.06-.05-.08-.06-.09-.12-.17-.2-.27l-.13.39-1.2.39c.06,0,.12,0,.18,0,.19-.02.38-.01.58,0,.07,0,.13.02.2.03l.22.03c.39.06.91.4,1.16.75.21.29.31.61.35.97.07.46-.05,1.08-.34,1.48-.11-.23-.22-.43-.37-.61l-.17-.21.12-.32c-.12,0-.24.09-.3.02-.2-.22-.4-.43-.62-.63l-.13-.11c.03-.18.06-.35.06-.53-.16.02-.35.16-.5.19-.12-.05-.32-.23-.43-.26-.03,0-.04-.05-.07-.07-.07-.03-.14-.05-.22-.08,0,.11.1.13.21.32.02.04.06.07.05.12,0,.02.01.02.02,0,.29.5.36,1.05.27,1.61-.05.34-.17.66-.37.95-.08.11-.17.19-.24.29-.05.02-.07.07-.11.1l-.3.23-.12.08s-.08.05-.12.02c.05-.35.11-.82.29-1.14l.21-.37s0-.11-.01-.15l-.12-.42c-.04-.12-.08-.25-.09-.38,0-.05.1-.05.13-.07l.11-.08s.18-.16.18-.17c0-.02,0-.05-.03-.06l-.46-.24c-.07-.03-.14-.06-.15-.14,0-.06-.18-.55-.27-.58-.06-.07-.07-.17-.13-.22-.04-.02-.08-.02-.12-.03-.04-.05-.11-.05-.16-.07-.14-.05-.57-.17-.73-.2l-.32-.07c-.08-.02-.15-.04-.18-.13-.02-.05-.18-.45-.23-.48-.09.04-.15.12-.22.18l-.37.34c-.39,0-.77.04-1.16.08-.11.01-.22,0-.33.04-.02,0-.05,0-.06-.01s0-.04,0-.06c.12-.21.27-.39.44-.56.15-.16.31-.29.5-.4.21-.12.41-.22.65-.25.2-.03.41-.04.61,0l.31.06c.06.01.11.04.17.06.3.11.49.22.71.45l.24.24c.05-.05-.13-.23-.13-.24-.04-.06-.06-.12-.13-.15.05-.17.06-.4.06-.57-.11-.05-.34.07-.45.09-.07-.03-.58-.62-.58-.62l-.1-.3c-.02-.05-.25.09-.36.09-.09,0-.55-.16-.81-.19-.01,0-.02-.03-.02-.04s0-.03.02-.03l.39-.21.21-.07c.31-.11.73-.1,1.06,0,.3.09.54.21.78.41.2.16.11.1.25.26.22.24.35.53.46.83.06.18.08.36.12.56.06-.12.02-.24.03-.36,0-.18-.04-.34-.07-.51s-.12-.35-.11-.53c0-.12.36-.5.31-.58-.01-.02-.03-.01-.05-.02-.19-.07-.2-.02-.4-.09-.07-.03-.17,0-.24-.04-.09-.07-.13-.19-.18-.28l-.16-.27-.08-.11c-.15-.21-.29-.42-.46-.63.08-.07.44.01.53,0Z"/>
      <path class="cls-4" d="M7.7,16.21c-.09.03-.31.18-.31.22,0,.01.01.04.02.04,0,0-.02.01-.02.02,0,.08-.02.15-.04.23-.05.19-.04.41-.13.51.01-.02-.38.24-.41.26-.04.03-.07.02-.08.07-.02.12.25.24.34.3.03.1-.03.21-.05.31-.05.21-.15.69-.11.89.02.09.25.36.29.47.05.17.04.54.08.74,0,.02-.01.06-.03.06-.01,0-.04,0-.05,0l-.13-.08c-.08-.05-.42-.3-.46-.35-.11-.13-.23-.26-.31-.41-.58-1.04-.25-1.84-.27-1.98.02,0,.03-.03.04-.05l.06-.17c.04-.13.1-.25.16-.36.04-.07.11-.12.13-.22-.07.03-.14.06-.19.1-.08.06-.23.13-.23.21-.02,0-.04,0-.05.02l-.12.11s-.07.02-.11,0c-.14-.06-.29-.09-.44-.12l.11.53c-.2.24-.42.46-.58.72l-.09.14-.28-.04.13.34c-.2.27-.34.55-.46.87-.42-.53-.52-1.25-.41-1.88.08-.49.35-.9.76-1.18.49-.33.95-.42,1.52-.46.02,0,.02-.07,0-.07-.28-.07-.56-.11-.84-.16-.07-.01-.13-.03-.21-.03-.05-.12-.09-.24-.17-.35-.08.12-.13.24-.19.36-.53.06-1.04.14-1.58.23.13-.31.31-.58.55-.79.06-.05.13-.09.19-.15.71-.48,1.54-.47,2.26-.02.03.02.06.04.08.04.03.07.1.11.18.13.01-.04-.14-.32-.15-.31,0-.05-.02-.09-.04-.13-.23-.56-.31-1.23-.09-1.8.15-.4.5-.76.88-.95.16-.08.32-.17.49-.21l.32-.08c.07-.02.13-.03.21-.03l-.21.42c-.04.08-.09.15-.13.23l-.17.36c-.06.13-.11.36-.18.4-.13.07-.56.18-.64.25-.04.03,0,.08.03.11l.32.35s.07.08.06.15c-.04.29-.09.76,0,1.03.05.16.04.14.12.31.04-.05.04-.11.04-.17.04-.47.26-.99.56-1.36.08-.09.16-.16.24-.24.29-.27.61-.4,1-.47.29-.05.57-.03.85.06.06.02.12.04.18.06.05.02.1.02.15.06.05.05.13.04.18.12-.24.05-.46.13-.69.19-.06.02-.12.07-.19.07-.12,0-.35-.11-.38-.05-.06.13,0,.21-.16.39s-.29.38-.44.58c-.17-.02-.3-.12-.45-.09-.01.15.02.29.04.44l.02.12s-.04.05-.06.08l-.09.13-.09.19s0,.04.01.04.03,0,.04-.02c.02-.06.07-.09.1-.13.25-.31.52-.53.89-.67.29-.11.62-.17.93-.13.17.02.34.05.49.12l.2.1c.39.19.71.51.95.86.02.02.01.05,0,.06-.03.05-.12,0-.24,0-.08,0-.15-.01-.23-.02-.24-.03-.48-.02-.73-.03-.05,0-.14.01-.18-.02-.09-.07-.54-.48-.61-.45-.02,0-.14.24-.16.29-.03.08-.06.15-.1.22-.02.04-.06.05-.1.06-.32.07-.62.18-.93.29l-.39.15s-.02.03-.03.04Z"/>
      <path class="cls-5" d="M15.5,21.34s-.02.03-.01.04c0,0,0,.28.03.35-.07.02-.14.02-.22.02h-4.32c-.18,0-.51.16-.62.29-.06.07-.14.13-.19.21-.12.19-.17.41-.17.64.07.04.42-.02.49-.02h1.11s.14,0,.14,0h2.81c.13.03.25,0,.38,0,.2,0,.4.01.6,0,.12,0,.23-.01.34,0,.16.02.32,0,.48.01.06,0,.1-.02.16-.02h2.49c.13.04.41,0,.53,0h2.17s.14.02.14.02c.07,0,.13.03.2,0,.04-.05.02-.12.02-.18,0-.08-.02-.13-.04-.2-.16-.46-.17-.31-.29-.47-.09-.12-.23-.17-.36-.23-.14-.06-.26-.08-.41-.08h-1.2c-.09-.11-.08-.27-.06-.4h1.4c.2,0,.35.06.52.13.52.21.86.75.86,1.32v.25c.07.03.14.08.21.12l.13.09c.07.05.15.1.21.16.22.24.46.62.53.95.05.25.07.59.01.84-.07.27-.18.52-.33.74-.2.29-.42.48-.73.63l-.13.07c-.21.1-.44.11-.68.11h-4.43s-1.32,0-1.32,0h-5.67c-.32,0-.6-.11-.87-.26-.14-.08-.25-.17-.37-.28-.18-.17-.32-.39-.44-.62-.03-.05-.12-.35-.12-.39-.04-.26-.03-.78.07-1l.12-.27c.07-.16.24-.39.35-.51.1-.1.2-.18.32-.25l.26-.15c-.01-.18-.01-.35.03-.52.13-.55.52-.98,1.07-1.12.06-.01.13-.04.18-.04h1.05s3.58-.01,3.58-.01ZM22.01,26.22c.09-.01.17-.07.25-.1.14-.05.24-.14.36-.24.13-.11.23-.24.31-.4s.16-.34.15-.53c0-.26.03-.25-.04-.52-.03-.12-.18-.44-.24-.5l-.14-.13c-.16-.15-.3-.26-.51-.33-.13-.05-.26-.09-.41-.09h-1.53s-.74-.02-.74-.02l-.16.02h-3.71s-.27-.01-.27-.01c-.13,0-.26.04-.4,0h-4.54c-.2,0-.49.09-.67.19-.1.05-.2.12-.29.19-.03.02-.2.23-.23.27-.04.05-.07.11-.09.17l-.06.14c-.04.08-.04.18-.07.27-.03.07,0,.14,0,.21-.01.13,0,.24.03.36.07.21.15.42.3.58.25.27.21.21.45.35l.11.06c.14.07.29.11.46.11h3.1s3.37,0,3.37,0h.23s4.69,0,4.69,0l.3-.05Z"/>
      <path class="cls-5" d="M20.86,8.3c-.08.07-.23.12-.33.15-.39.11-.82-.08-1.01-.43-.07-.12-.08-.28-.13-.33.02,0,.02-.04.02-.06-.01-.16.01-.3.08-.43.06-.11.12-.22.23-.3.14-.11.29-.19.47-.2.08,0,.17,0,.25,0,.28.04.53.21.66.47.11.23.14.5.04.74-.06.14-.16.29-.27.39Z"/>
      <path class="cls-5" d="M19.22,7.11c-.13.12-.28.07-.41,0-.06-.03-.11-.04-.16-.09-.07-.06-.18-.08-.23-.18,0-.07-.01-.17.05-.21.09-.07.22-.04.32.01.05,0,.08.03.11.05.09.07.24.08.3.17.05.07.01.17,0,.24Z"/>
      <path class="cls-5" d="M21.28,6.6c-.06.1-.14.17-.25.13-.09-.03-.16-.15-.1-.26.04-.09.28-.47.38-.5.07-.02.14-.01.18.03.07.07.07.17.02.24l-.22.34Z"/>
      <path class="cls-5" d="M20.02,6.29c.02.13-.12.23-.23.2-.08-.03-.13-.1-.16-.18l-.06-.16c-.04-.09-.09-.19-.1-.29,0-.09.07-.15.14-.16.19-.05.26.24.34.41.03.06.06.11.07.18Z"/>
      <path class="cls-5" d="M22.25,7.63c0,.07,0,.11-.06.15-.04.03-.09.04-.15.04h-.34c-.09-.01-.2-.01-.24-.1-.05-.1,0-.27.11-.28.16,0,.3.02.46,0,.03,0,.22.03.22.19Z"/>
      <path class="cls-2" d="M13.53,13.07v4.3s-.02.05-.05.05h-2.04s0-5.16,0-5.16c.04-.05.09-.06.14-.1l.77-.52,1.48-.99,1.74-1.16c.13-.09.27-.19.41-.27l2.27,1.5,1.93,1.29.36.25v5.17s-4.16,0-4.16,0v-4.31c0-.14-.08-.24-.23-.25h-2.45c-.11,0-.19.1-.19.21ZM19.01,14.59c.11,0,.18-.1.18-.2v-1.37c0-.1-.1-.16-.19-.16h-1.28c-.11,0-.2.11-.2.22v1.33c0,.11.1.19.2.19h1.29Z"/>
      <path class="cls-2" d="M16.74,9.09l-.75-.49-4.12,2.75-.13.09-.75.5c-.18.12-.35.25-.55.36-.13.07-.28.03-.39-.05s-.17-.22-.16-.37c0-.12.07-.22.17-.29l1.8-1.2.94-.64.68-.45,1.02-.69.99-.67c.38-.26.67-.21,1.04.03l.42.27.82.54,1.68,1.12.42.28,1.52,1.02.57.38c.11.07.17.18.17.31,0,.16-.08.3-.2.37-.15.08-.31.06-.44-.03l-.27-.18s-.08-.06-.13-.09l-.32-.21-1.49-1-.67-.44-1.86-1.24Z"/>
      <path class="cls-2" d="M21.17,18.75h-10.27c-.08,0-.16-.04-.22-.09-.18-.14-.18-.42-.04-.59.07-.08.15-.09.25-.13h10.24c.21.05.36.19.36.4.01.2-.11.34-.31.4Z"/>
      <path class="cls-1" d="M24.73,15.77c-.26.23-.51.48-.73.75-.12.15-.23.29-.34.45-.34.5-.46.74-.71,1.29s-.44,1.08-.58,1.66c-.02.09-.04.16-.06.25l-.04.17h-1.39c.33-.96.75-1.78,1.32-2.59.17-.24.35-.46.54-.69.24-.29.5-.55.78-.8.31-.27.62-.52.95-.74.04,0,.08,0,.12.03.06.05.08.16.13.22Z"/>
      <path class="cls-1" d="M7.7,16.21c.28.16.53.34.79.55.55.42,1.29,1.21,1.68,1.78l.09.13c.19.28.53.83.67,1.13l.24.51c.05.09.07.19.12.29h-1.4c-.07-.36-.2-.7-.34-1.05-.11-.27-.2-.53-.35-.79-.33-.65-.74-1.26-1.24-1.78-.14-.14-.41-.42-.56-.51-.01,0-.02-.03-.02-.04,0-.04.22-.2.31-.22Z"/>
      <path class="cls-2" d="M16,21.34c-.02.34.05.33.08.44s.14.23-.01.38c-.07.07-.17.09-.28.05-.09-.03-.13-.13-.17-.22l-.11-.25c-.03-.07-.02-.34-.03-.35,0-.02,0-.03.01-.04.01-.24.11-.46.27-.64.08-.1.18-.17.26-.26.19-.19.24-.46.15-.72-.03-.1-.02-.2.04-.27.06-.08.16-.1.27-.08.12.02.17.14.2.25.1.4.04.76-.22,1.09-.2.25-.43.33-.47.64Z"/>
      <path class="cls-2" d="M17.84,21.34c-.04.15.01.3.06.44.03.08.08.16.07.24-.02.1-.1.17-.19.2-.25.07-.35-.22-.4-.4,0-.03-.02-.05-.04-.05v-.17c0-.08-.03-.17-.02-.25.04-.31.19-.57.42-.78.3-.27.39-.51.27-.9-.03-.12.02-.24.13-.29s.26-.02.31.08c.09.15.1.31.11.48.01.32-.09.61-.32.83l-.19.18c-.11.11-.21.24-.21.4Z"/>
      <path class="cls-2" d="M19.69,21.35c-.01.14-.03.29.06.4,0,.04.02.08.03.12.03.09.03.22-.05.29,0,0-.01,0-.02.01-.03.02-.06.03-.09.05h-.14s0,0-.01,0c0-.01,0-.02-.01-.03,0,0-.02,0-.02,0-.06-.04-.11-.09-.14-.16-.03-.08-.07-.15-.1-.23.04-.09-.02-.18-.01-.36,0-.17.04,0,0-.24,0-.14.07-.26.15-.38.09-.14.22-.24.34-.36.18-.18.26-.47.17-.71-.04-.12-.04-.24.06-.33.08-.07.22-.09.32-.01.15.12.18.59.15.76-.02.09-.03.17-.07.25-.22.49-.59.51-.63.93Z"/>
      <path class="cls-5" d="M17.33,21.35c-.01.08.01.16.01.25v.17s-.2,0-.2,0c-.08,0-.14.01-.22,0-.12-.01-.23,0-.34,0-.17,0-.34,0-.5.01-.03-.11-.1-.1-.08-.44h1.32Z"/>
      <path class="cls-5" d="M19.15,21.35c-.02.14.04.32,0,.42h-1.12c-.07,0-.09.03-.13.02-.05-.14-.1-.28-.06-.44h1.31Z"/>
      <path class="cls-5" d="M18.66,8.49c-.1.04-.18,0-.23-.08s-.03-.19.06-.23c.15-.08.3-.15.45-.21.1-.04.21.02.24.11.03.11-.02.19-.12.24l-.4.18Z"/>
      <path class="cls-5" d="M21.34,9.25c-.05.03-.17.02-.22,0-.1-.16-.17-.32-.26-.48-.04-.07-.02-.17.05-.22s.2-.07.24.01l.23.42c.05.09.07.22-.04.28Z"/>
      <path class="cls-5" d="M19.43,9.37c-.07-.08-.04-.18,0-.26.13-.22.16-.51.4-.42.08.03.14.14.1.22l-.19.39c-.03.07-.07.12-.13.14s-.14,0-.19-.07Z"/>
      <path class="cls-1" d="M19.2,21.2c.03.23,0,.07,0,.24,0,.18.06.27.01.36,0-.01-.03-.03-.04-.03.04-.09-.02-.28,0-.42.04-.04,0-.14.04-.15Z"/>
      <path class="cls-3" d="M22.01,26.22l-.3.05h-4.69s-.23,0-.23,0h-3.37s-3.1,0-3.1,0c-.17,0-.32-.03-.46-.11l-.11-.06c-.25-.13-.21-.08-.45-.35-.15-.16-.24-.37-.3-.58-.04-.13-.04-.24-.03-.36,0-.07-.02-.13,0-.21.03-.09.03-.19.07-.27l.06-.14c.03-.06.06-.12.09-.17.03-.04.2-.25.23-.27.09-.07.19-.14.29-.19.18-.1.47-.18.67-.18h4.54c.14.04.27,0,.4,0h.27s3.71.01,3.71.01l.16-.02h.74s1.53.02,1.53.02c.14,0,.28.05.41.09.21.07.35.18.51.33l.14.13c.06.06.21.38.24.5.07.27.03.26.04.52,0,.19-.08.36-.15.53s-.17.28-.31.4c-.11.09-.21.18-.36.24-.08.03-.16.09-.25.1Z"/>
      <path class="cls-3" d="M15.52,21.73l.11.25c.04.09.08.19.17.22.11.04.2.03.28-.05.15-.15.04-.27.01-.38.17-.02.33-.02.5-.01.11,0,.22,0,.34,0,.07,0,.14,0,.22,0h.2s.03.02.04.05c.05.18.15.48.4.4.09-.03.18-.1.19-.2.01-.08-.04-.16-.07-.24.04.01.07-.01.13-.01h1.12s.04.01.04.03c.02.08.06.15.1.23.03.07.08.12.14.16,0,.02.02.03.03.03,0,0,0,0,.01,0,.04.03.1.02.14,0,.03-.02.07-.02.09-.05h.02c.07-.08.08-.21.05-.3-.02-.04-.04-.08-.03-.12h1.2c.15,0,.27.01.41.07.13.06.27.11.36.23.12.16.13,0,.29.47.02.07.05.12.04.2,0,.06.02.13-.02.18-.07.02-.13,0-.2,0l-.14-.02h-2.17c-.12,0-.4.04-.53,0h-2.49c-.06,0-.1.03-.16.02-.16,0-.32,0-.48-.01-.11-.01-.23-.01-.34,0-.2.02-.39.01-.6,0-.13,0-.25.03-.38-.02h-2.81s-.14,0-.14,0h-1.11c-.07,0-.42.05-.49.02,0-.22.05-.45.17-.64.05-.08.13-.14.19-.21.11-.13.44-.28.62-.28h4.32c.09,0,.15,0,.22-.02Z"/>
      <path class="cls-6" d="M19.01,14.59h-1.29c-.1,0-.2-.07-.2-.19v-1.33c0-.11.09-.22.2-.22h1.28c.09,0,.18.06.18.16v1.37c0,.1-.06.2-.17.2Z"/>
    </g>
  </g>
</svg>